<?xml version="1.0" encoding="UTF-8" standalone="no"?>
<svg xmlns:dc="http://purl.org/dc/elements/1.1/" xmlns:cc="http://creativecommons.org/ns#" xmlns:rdf="http://www.w3.org/1999/02/22-rdf-syntax-ns#" xmlns:svg="http://www.w3.org/2000/svg" xmlns="http://www.w3.org/2000/svg" xmlns:sodipodi="http://sodipodi.sourceforge.net/DTD/sodipodi-0.dtd" xmlns:inkscape="http://www.inkscape.org/namespaces/inkscape" version="1.1" id="svg2816" height="64px" width="64px" inkscape:version="0.48.4 r9939" sodipodi:docname="screwtask.svg">
  <sodipodi:namedview pagecolor="#ffffff" bordercolor="#666666" borderopacity="1" objecttolerance="10" gridtolerance="10" guidetolerance="10" inkscape:pageopacity="0" inkscape:pageshadow="2" inkscape:window-width="1375" inkscape:window-height="811" id="namedview8" showgrid="true" inkscape:snap-global="true" inkscape:zoom="2.6074563" inkscape:cx="13.761741" inkscape:cy="7.0890204" inkscape:window-x="65" inkscape:window-y="24" inkscape:window-maximized="1" inkscape:current-layer="svg2816">
    <inkscape:grid type="xygrid" id="grid2985" empspacing="1" visible="true" enabled="true" snapvisiblegridlinesonly="true" spacingx="0.8px" spacingy="0.8px" />
  </sodipodi:namedview>
  <defs id="defs2818" />
  <metadata id="metadata2821">
    <rdf:RDF>
      <cc:Work rdf:about="">
        <dc:format>image/svg+xml</dc:format>
        <dc:type rdf:resource="http://purl.org/dc/dcmitype/StillImage" />
        <dc:title></dc:title>
        <dc:title>Path-BaseGeometry</dc:title>
        <dc:date>2016-05-15</dc:date>
        <dc:relation>http://www.freecadweb.org/wiki/index.php?title=Artwork</dc:relation>
        <dc:publisher>
          <cc:Agent>
            <dc:title>FreeCAD</dc:title>
          </cc:Agent>
        </dc:publisher>
        <dc:identifier>FreeCAD/src/Mod/Path/Gui/Resources/icons/Path-BaseGeometry.svg</dc:identifier>
        <dc:rights>
          <cc:Agent>
            <dc:title>FreeCAD LGPL2+</dc:title>
          </cc:Agent>
        </dc:rights>
        <cc:license>https://www.gnu.org/copyleft/lesser.html</cc:license>
        <dc:contributor>
          <cc:Agent>
            <dc:title>[agryson] Alexander Gryson</dc:title>
          </cc:Agent>
        </dc:contributor>
      </cc:Work>
    </rdf:RDF>
  </metadata>
  <path style="fill:#729fcf;stroke:#000000;stroke-width:1px;stroke-linecap:butt;stroke-linejoin:round;stroke-opacity:1" d="m 8,40 0,16 44,0 0,-16 z" id="path9885" inkscape:connector-curvature="0" />
  <path style="fill:#729fcf;stroke:#000000;stroke-width:1px;stroke-linecap:butt;stroke-linejoin:round;stroke-opacity:1" d="m 8,40 8,-16 44,0 -8,16 z" id="path9887" inkscape:connector-curvature="0" />
  <path style="fill:#729fcf;stroke:#000000;stroke-width:1px;stroke-linecap:butt;stroke-linejoin:round;stroke-opacity:1" d="m 60,40 0,-16 -8,16 0,16 z" id="path9891" inkscape:connector-curvature="0" />
  <g id="g11337" transform="matrix(1.6407747,0,0,1.6407747,72.077665,-1.9550749)">
    <path inkscape:connector-curvature="0" id="path11317" d="m -28,12 0,9.6 c 0,0 0,1.6 4,1.6 4,0 4,-1.6 4,-1.6 l 0,-9.6" style="fill:#ef2929;stroke:#000000;stroke-width:1px;stroke-linecap:butt;stroke-linejoin:miter;stroke-opacity:1" />
    <path inkscape:connector-curvature="0" id="path11190-46-2" d="m -19.946244,11.494715 c 0,0 -1.423729,1.898305 -4,1.898305 -2.576271,0 -4,-0.40678 -4,-0.40678" style="fill:none;stroke:#000000;stroke-width:1.60000002;stroke-linecap:round;stroke-linejoin:round;stroke-miterlimit:4;stroke-opacity:1;stroke-dasharray:none" />
    <path inkscape:connector-curvature="0" id="path11048" d="m -32,8 c 0,0 0,-4 8,-4 8,0 8,4 8,4 0,0 0,4 -8,4 -8,0 -8,-4 -8,-4 z" style="fill:#729fcf;stroke:#000000;stroke-width:1px;stroke-linecap:butt;stroke-linejoin:miter;stroke-opacity:1" />
    <path inkscape:connector-curvature="0" id="path11190" d="m -19.898305,16.079095 c 0,0 -1.423729,1.898305 -4,1.898305 -2.576271,0 -4,-0.40678 -4,-0.40678" style="fill:none;stroke:#000000;stroke-width:1.60000002;stroke-linecap:round;stroke-linejoin:round;stroke-miterlimit:4;stroke-opacity:1;stroke-dasharray:none" />
    <path inkscape:connector-curvature="0" id="path11190-46" d="m -19.898305,18.327684 c 0,0 -1.423729,1.898305 -4,1.898305 -2.576271,0 -4,-0.40678 -4,-0.40678" style="fill:none;stroke:#000000;stroke-width:1.60000002;stroke-linecap:round;stroke-linejoin:round;stroke-miterlimit:4;stroke-opacity:1;stroke-dasharray:none" />
    <path inkscape:connector-curvature="0" id="path11190-3" d="m -19.898305,13.830509 c 0,0 -1.423729,1.898305 -4,1.898305 -2.576271,0 -4,-0.40678 -4,-0.40678" style="fill:none;stroke:#000000;stroke-width:1.60000002;stroke-linecap:round;stroke-linejoin:round;stroke-miterlimit:4;stroke-opacity:1;stroke-dasharray:none" />
    <path transform="matrix(1.0318786,0,0,0.41149652,4.8926008,12.937958)" d="m -24,-8.0000001 -3.267949,-1.2679492 -2.196153,2.7320508 L -30,-10 l -3.464102,-0.535898 2.732051,-2.196153 L -32,-16 l 3.267949,1.267949 2.196153,-2.732051 L -26,-14 l 3.464102,0.535898 -2.732051,2.196153 z" inkscape:randomized="0" inkscape:rounded="0" inkscape:flatsided="false" sodipodi:arg2="1.3089969" sodipodi:arg1="0.78539816" sodipodi:r2="2.8284271" sodipodi:r1="5.6568542" sodipodi:cy="-12" sodipodi:cx="-28" sodipodi:sides="6" id="path11272" style="fill:#729fcf;fill-opacity:0.29223747;stroke:#000000;stroke-width:1;stroke-linecap:round;stroke-linejoin:round;stroke-miterlimit:4;stroke-opacity:1;stroke-dasharray:none;stroke-dashoffset:0" sodipodi:type="star" />
  </g>
</svg>
